<svg version="1.1" id="Layer_1" xmlns="http://www.w3.org/2000/svg" xmlns:xlink="http://www.w3.org/1999/xlink" x="0px" y="0px"
	 width="100%" viewBox="0 0 1024 896" enable-background="new 0 0 1024 896" xml:space="preserve">
<path fill="#000000" opacity="1.000000" stroke="none" 
	d="
M622.841675,94.896805 
	C630.180176,82.165405 637.348083,69.758743 644.523682,57.356544 
	C647.407593,52.371929 650.373474,50.743130 653.419067,52.722469 
	C657.811157,55.576809 656.407837,59.323692 654.438049,62.809055 
	C643.699829,81.809311 632.871521,100.758644 622.081177,119.729439 
	C616.068420,130.300781 610.044006,140.865601 604.073425,151.460800 
	C600.563843,157.688873 600.536438,157.814987 606.287170,161.780884 
	C622.779785,173.154816 637.200317,186.638657 648.174561,203.483734 
	C651.080688,207.944626 653.637329,208.023315 657.888123,205.505356 
	C686.411194,188.610001 715.044861,171.901306 743.650452,155.145477 
	C746.067383,153.729782 748.441040,151.827286 751.457703,153.818542 
	C755.767090,156.663116 755.367798,161.605881 750.363220,164.580246 
	C735.898926,173.176727 721.381104,181.683655 706.851257,190.169174 
	C692.178101,198.738388 677.494507,207.290787 662.748474,215.733444 
	C659.283997,217.716980 658.665833,219.877960 660.495605,223.476578 
	C670.405701,242.967087 676.911621,263.485382 678.321045,285.423279 
	C678.632263,290.267548 680.776123,291.800140 685.631897,291.771057 
	C716.962036,291.583466 748.293945,291.675629 779.625244,291.700104 
	C785.336914,291.704590 787.517334,293.449677 787.440186,297.694275 
	C787.382751,300.855469 785.817200,302.711792 782.708984,303.102325 
	C781.064392,303.308990 779.382263,303.253357 777.717041,303.253937 
	C747.052307,303.264587 716.386780,303.378662 685.723755,303.153320 
	C680.849976,303.117493 678.900208,304.433258 678.614441,309.382324 
	C677.686890,325.448486 673.818848,340.925049 668.335876,356.005829 
	C667.251709,358.987854 668.039856,360.194122 671.124512,360.764313 
	C682.024048,362.779175 692.102356,366.919861 701.891541,372.153015 
	C711.447876,377.261749 721.441406,381.301758 732.760132,380.931580 
	C738.345886,380.748932 742.805298,379.018188 746.459290,374.962067 
	C751.476868,369.392212 756.503052,363.828705 761.433350,358.182007 
	C763.635132,355.660370 766.044128,353.360077 769.540649,354.839905 
	C773.243042,356.406891 772.967041,360.140228 772.217163,363.117828 
	C770.756714,368.916443 769.024536,374.705536 766.758728,380.233734 
	C727.502869,476.013519 657.946594,535.448303 555.634949,554.682373 
	C516.463501,562.046326 477.706848,557.699951 439.590210,546.604675 
	C376.742432,528.310547 328.423584,490.376007 291.706085,436.967926 
	C279.689880,419.489563 270.119873,400.605347 262.666565,380.696869 
	C261.630890,377.930511 260.838898,375.140198 263.216339,372.775604 
	C265.480072,370.524200 268.406799,370.469055 271.153717,371.673767 
	C297.537720,383.245087 319.848816,374.531311 340.385254,357.648285 
	C345.385803,353.537354 349.725494,348.627869 354.434235,344.154175 
	C356.358887,342.325592 356.608459,340.520447 355.837372,337.909332 
	C353.195404,328.962646 351.578033,319.769135 350.771088,310.485199 
	C350.149078,303.329285 350.398743,303.282806 342.989319,303.279205 
	C312.491272,303.264313 281.993225,303.268463 251.495178,303.259369 
	C244.273422,303.257202 241.736053,301.794464 241.691162,297.652771 
	C241.644577,293.355469 244.460220,291.679413 251.758392,291.676819 
	C281.923126,291.666199 312.087830,291.666077 342.252563,291.644562 
	C349.976257,291.639038 349.911377,291.602020 350.805389,283.898407 
	C353.243469,262.890289 358.618103,242.711380 368.500763,223.924698 
	C370.527222,220.072495 369.906036,218.203537 366.198242,216.048431 
	C337.824249,199.556290 309.558960,182.877121 281.259918,166.256042 
	C280.255005,165.665833 279.204803,165.140137 278.253754,164.473083 
	C274.951202,162.156631 273.604797,159.103119 275.769135,155.436905 
	C278.040192,151.589966 281.234955,152.493149 284.411804,154.351074 
	C300.084106,163.516754 315.785889,172.632248 331.429443,181.846710 
	C345.351685,190.047272 359.264923,198.266281 373.057465,206.681503 
	C376.156219,208.572159 377.730743,208.340439 379.819794,205.243195 
	C391.598755,187.779510 406.250336,173.085007 423.759308,161.369003 
	C427.860565,158.624664 428.294983,156.264145 425.849518,152.027374 
	C409.195740,123.174667 392.757874,94.197235 376.291992,65.236374 
	C375.148041,63.224377 374.181885,61.076996 373.415161,58.893517 
	C372.453247,56.154263 373.519562,53.939747 375.960632,52.532600 
	C378.503021,51.067005 380.864380,51.738182 382.670197,53.871288 
	C383.949036,55.381977 384.997406,57.112560 385.991943,58.835438 
	C402.649597,87.692162 419.266022,116.572693 435.934387,145.423218 
	C439.465118,151.534332 439.520264,151.433975 445.893677,148.767517 
	C464.603210,140.939926 483.800293,135.028793 504.301117,134.735626 
	C509.176208,134.665909 508.916840,131.632385 508.917725,128.323013 
	C508.927002,94.325378 508.963623,60.327736 509.018646,26.330139 
	C509.021881,24.339239 509.033783,22.305325 509.423492,20.368237 
	C509.997345,17.515631 512.134094,16.246214 514.904724,16.204838 
	C517.624268,16.164223 519.296143,17.824705 519.888855,20.295923 
	C520.308472,22.045414 520.258606,23.929619 520.260803,25.753872 
	C520.300293,58.751465 520.312927,91.749084 520.343811,124.746696 
	C520.345520,126.577972 520.407776,128.412170 520.524902,130.239685 
	C520.715881,133.219971 522.223267,134.657349 525.339600,134.703476 
	C546.552612,135.017441 566.396790,141.006912 585.467041,149.777023 
	C589.337891,151.557159 590.943848,150.665451 592.861511,147.265518 
	C602.683167,129.852722 612.715515,112.558800 622.841675,94.896805 
M634.331482,204.143402 
	C582.317017,138.066406 488.267151,125.855919 421.984650,177.383286 
	C386.451050,205.006790 366.760895,242.049988 362.661652,287.012238 
	C361.336578,301.545898 362.265106,315.991913 366.611969,330.038635 
	C369.069122,329.654816 369.660706,328.107025 370.617126,327.025085 
	C383.849060,312.056458 396.402191,296.440186 411.431122,283.164001 
	C440.148865,257.795410 473.171112,246.881302 511.220825,254.993073 
	C537.522827,260.600372 557.315796,275.818237 571.395325,298.591675 
	C572.510193,300.394989 573.972107,302.321045 572.498352,304.581360 
	C570.975525,306.916901 568.536499,307.662689 565.948730,307.381805 
	C563.484802,307.114410 561.044861,306.480988 558.639709,305.838928 
	C539.266663,300.667511 517.744385,312.034180 511.133362,330.965240 
	C498.863983,366.099152 527.073608,399.122406 564.128967,393.456818 
	C578.958984,391.189392 592.147461,385.236145 604.998413,378.101257 
	C619.313843,370.153259 633.792908,362.679016 650.375122,360.667114 
	C653.025513,360.345612 654.412109,358.785309 655.363708,356.417236 
	C664.418091,333.885376 669.158203,310.786194 666.806396,286.269409 
	C663.894287,255.910965 653.164307,228.865219 634.331482,204.143402 
M458.972900,331.603271 
	C461.294220,327.804291 463.615540,324.005280 466.636475,319.061249 
	C458.730957,323.512146 453.147583,328.541901 447.582642,333.523926 
	C423.302124,355.261230 409.956024,382.516083 408.439423,415.014191 
	C407.094879,443.824646 414.938141,470.522156 433.270630,492.796753 
	C463.162903,529.116821 500.168793,550.892639 549.459534,543.698547 
	C598.143677,536.592957 641.276428,517.114441 678.822571,485.336029 
	C682.821533,481.951294 687.208008,478.858521 690.130859,474.123901 
	C689.567932,474.063477 689.200806,473.903198 688.972717,474.018402 
	C686.892944,475.068787 684.829651,476.152771 682.775940,477.253693 
	C657.434753,490.837738 630.691711,499.116364 601.669800,499.340881 
	C552.953552,499.717712 511.333923,482.468994 477.342651,447.968323 
	C446.957001,417.127258 439.872620,369.641418 458.972900,331.603271 
M506.988037,458.498444 
	C514.179749,463.352661 521.687012,467.688141 529.453430,471.526031 
	C568.892456,491.015350 609.445984,493.445953 650.979004,479.055634 
	C682.302490,468.202667 708.069641,449.183746 729.766174,424.470306 
	C738.711792,414.280853 744.749817,402.284851 750.122925,388.765472 
	C744.376099,391.465332 741.436768,395.850708 737.516235,399.012085 
	C697.070251,431.626923 651.373840,445.256989 599.845886,436.058441 
	C566.725586,430.145905 537.753296,415.936829 514.284790,391.025360 
	C490.708160,365.999054 490.461639,324.779846 517.331909,303.974579 
	C517.793884,303.616913 518.428040,303.194855 517.945923,302.176575 
	C516.883423,302.267639 515.710388,302.226196 514.607300,302.483948 
	C497.490875,306.483521 483.553009,315.656342 473.686279,330.011383 
	C458.143616,352.624359 456.984650,377.692719 464.372406,403.203278 
	C471.185211,426.728455 486.670288,444.164215 506.988037,458.498444 
M423.124207,288.645996 
	C420.252533,291.176117 417.286346,293.607544 414.524780,296.252655 
	C398.621704,311.484985 385.185944,328.957031 370.295959,345.113495 
	C355.755890,360.890289 340.512543,375.710785 320.115570,383.795471 
	C310.448395,387.627258 300.476807,389.723938 289.894379,388.605438 
	C286.658691,388.263458 283.219849,386.642822 278.948517,388.620972 
	C282.515228,395.660492 286.013489,402.392853 289.345825,409.206421 
	C291.342560,413.289154 294.683594,415.461090 298.873718,416.593018 
	C314.655884,420.856415 330.249390,420.137360 345.344299,413.932190 
	C364.545685,406.038971 379.874176,392.855438 393.549744,377.527130 
	C408.727417,360.515106 421.638245,341.535034 438.411194,325.910309 
	C467.576385,298.741699 501.857880,286.549286 541.702332,290.513580 
	C544.075562,290.749695 546.567139,291.440399 548.957825,290.348907 
	C548.977844,287.912903 547.142151,286.988647 545.893738,285.828094 
	C529.204407,270.312347 509.201508,263.221283 486.653442,263.580688 
	C462.711700,263.962250 442.090271,273.400024 423.124207,288.645996 
M373.774811,502.701660 
	C401.854584,522.000916 454.594147,542.833374 471.825775,541.410645 
	C414.972748,507.488220 388.444611,458.599823 398.163574,391.435913 
	C384.605438,403.417694 371.333588,414.985168 355.164398,422.436371 
	C338.864014,429.947998 321.631653,432.255920 303.560181,430.248047 
	C308.114471,444.906555 345.910889,483.679810 373.774811,502.701660 
M704.543396,386.073029 
	C698.691467,383.268188 692.923340,380.269501 686.970764,377.697693 
	C673.357666,371.816193 659.389404,369.494781 644.645447,373.255310 
	C632.222900,376.423737 621.082581,382.283813 610.014893,388.428650 
	C595.835083,396.301361 581.280701,403.092865 564.866516,404.962402 
	C560.776550,405.428284 556.536438,404.603302 552.129333,406.000488 
	C577.255615,422.748169 620.329041,432.828796 659.635437,424.516022 
	C683.972168,419.369171 706.108704,409.484375 726.479980,392.743500 
	C718.337891,390.835083 711.494019,389.505737 704.543396,386.073029 
z"/>
<path fill="#000000" opacity="1.000000" stroke="none" 
	d="
M164.758972,674.968384 
	C159.310364,678.985474 157.561584,684.067078 158.019241,690.434814 
	C158.460205,696.570496 158.287170,702.764282 158.121979,708.925537 
	C157.964676,714.793213 159.703339,719.392212 165.390839,721.915161 
	C166.290680,722.314270 167.164871,722.876465 167.539322,724.704956 
	C155.574753,724.704956 143.736145,724.704956 131.921234,724.704956 
	C131.449890,723.314148 132.288818,722.589722 133.128952,722.138550 
	C139.111282,718.925415 140.516357,713.304016 140.545441,707.298157 
	C140.661636,683.300293 140.616394,659.301331 140.530716,635.303101 
	C140.510025,629.506897 139.584000,623.969788 134.041138,620.471497 
	C133.139160,619.902161 132.086594,619.101074 132.485962,617.154053 
	C143.872162,617.154053 155.355087,617.154053 166.874344,617.154053 
	C167.312469,619.598633 165.235748,619.994873 163.995941,620.776855 
	C159.934784,623.338440 158.183273,626.909607 158.218048,631.668396 
	C158.307816,643.949402 158.248123,656.231567 158.248123,668.458862 
	C160.315201,668.977478 160.997467,667.550232 161.904266,666.728027 
	C174.014023,655.747498 185.145462,643.786499 196.412125,631.970825 
	C202.260590,625.837341 202.063278,625.649170 196.919937,617.340637 
	C207.011673,617.340637 216.688385,617.340637 226.301727,617.340637 
	C226.821289,619.280945 225.554993,619.815552 224.602188,620.276001 
	C214.342438,625.234558 206.351013,632.974915 198.624191,641.101562 
	C193.343323,646.655701 187.898346,652.059143 182.393646,657.392639 
	C180.049667,659.663757 179.741196,661.751282 181.733719,664.351379 
	C193.589752,679.822632 204.930252,695.691406 217.374817,710.707825 
	C220.929337,714.996948 225.476990,718.086975 230.333023,720.769470 
	C232.005905,721.693542 234.100937,722.268311 234.737381,724.486938 
	C225.394440,729.605530 208.102997,726.436890 201.021820,717.603271 
	C192.378021,706.820374 184.384003,695.516907 176.095505,684.448669 
	C173.898529,681.514893 171.641647,678.625977 169.432556,675.701172 
	C168.220306,674.096130 166.974014,672.810059 164.758972,674.968384 
z"/>
<path fill="#000000" opacity="1.000000" stroke="none" 
	d="
M326.908081,654.162231 
	C334.837891,672.189392 342.605103,689.871460 350.378448,707.550964 
	C352.894348,713.273010 355.881927,718.600220 361.798553,721.579224 
	C362.836823,722.101929 363.690918,722.967285 363.650787,724.875916 
	C351.278748,724.875916 338.894318,724.875916 326.610687,724.875916 
	C326.247406,723.445496 326.907257,722.885376 327.500916,722.328918 
	C333.687012,716.530640 333.841125,715.941589 330.891693,708.257690 
	C329.877533,705.615540 328.438568,703.078796 327.823761,700.351807 
	C325.927490,691.940979 320.745667,689.005737 312.380646,689.418152 
	C302.762939,689.892395 293.102936,689.569946 283.462372,689.478882 
	C280.813416,689.453796 279.505737,690.869446 278.660370,693.043152 
	C276.548950,698.472046 274.503052,703.926636 272.361786,709.343567 
	C270.468018,714.134460 271.290375,718.105103 275.559052,721.242249 
	C276.718964,722.094727 278.172272,722.851013 278.103027,725.260254 
	C269.173737,726.881775 260.287994,725.139465 251.515106,725.187317 
	C250.973099,722.486938 252.497910,721.722412 253.592056,720.847656 
	C259.108917,716.436890 262.497345,710.583435 265.120239,704.187500 
	C276.235901,677.081726 287.346741,649.973877 298.472321,622.872192 
	C299.349579,620.735168 299.929474,618.336731 302.115692,617.072693 
	C306.974457,614.263428 310.469208,615.515076 312.677124,620.718628 
	C317.359772,631.754395 322.056763,642.784058 326.908081,654.162231 
M288.001343,682.033203 
	C298.332092,682.033203 308.662842,682.033203 319.951477,682.033203 
	C313.893036,666.420410 308.141937,652.294006 301.350098,637.463806 
	C294.582336,651.569763 289.919098,665.239990 284.360901,678.533569 
	C283.128510,681.480896 284.771271,682.021912 288.001343,682.033203 
z"/>
<path fill="#000000" opacity="1.000000" stroke="none" 
	d="
M864.499268,706.445923 
	C862.737976,702.073303 861.096924,698.067932 859.505615,694.042786 
	C858.416565,691.288025 856.627136,690.011108 853.483337,689.812317 
	C841.991516,689.085449 830.501404,689.564636 819.012329,689.437317 
	C815.309265,689.396240 813.245605,690.799561 812.092590,694.421448 
	C810.580505,699.171082 808.610291,703.784973 806.660706,708.382385 
	C804.509399,713.455566 804.915588,717.722229 809.774719,721.064880 
	C810.947144,721.871521 812.308716,722.773438 812.351868,725.184570 
	C803.435120,725.184570 794.545410,725.184570 785.766785,725.184570 
	C785.491760,723.622681 785.910583,722.855774 786.582092,722.368835 
	C794.546143,716.593018 798.162170,708.014587 801.696899,699.316040 
	C812.228333,673.399658 822.916199,647.546753 833.380676,621.603516 
	C834.868591,617.914734 836.834473,615.845093 840.969055,615.710449 
	C845.032043,615.577942 845.860535,618.550232 847.022949,621.261902 
	C858.569702,648.198853 870.130371,675.130127 881.584167,702.106628 
	C884.940857,710.012451 888.502136,717.671326 896.196899,722.420471 
	C896.593933,722.665466 896.878845,723.146912 897.117615,723.573364 
	C897.262756,723.832581 897.219299,724.197327 897.320618,724.976807 
	C885.435059,724.976807 873.615356,724.976807 859.953003,724.976807 
	C867.725281,719.545776 868.569824,713.554565 864.499268,706.445923 
M848.175842,666.249146 
	C844.346069,656.976562 840.860901,647.544373 835.461243,637.366211 
	C828.272949,652.467651 823.303650,666.910583 817.364258,681.107544 
	C823.880920,682.655884 849.559631,682.366638 853.599121,680.757019 
	C852.709839,675.898315 850.031921,671.615356 848.175842,666.249146 
z"/>
<path fill="#000000" opacity="1.000000" stroke="none" 
	d="
M670.975220,681.879150 
	C665.657471,695.051575 660.460022,707.858826 655.341064,720.697449 
	C654.122253,723.754395 652.869995,726.652710 648.984192,726.811340 
	C644.903381,726.977844 643.159363,724.169067 641.810486,720.954712 
	C631.114380,695.465454 620.430054,669.971252 609.731323,644.483093 
	C608.120483,640.645508 606.440735,636.837036 604.816711,633.004883 
	C602.834290,628.327087 600.238037,624.149292 595.899048,621.229065 
	C594.721497,620.436584 593.329102,619.601929 593.295471,617.245483 
	C604.966370,617.245483 616.614380,617.245483 628.312683,617.245483 
	C629.050171,619.148743 627.474243,619.995667 626.361328,620.779236 
	C622.257935,623.668396 621.742981,627.240173 623.567871,631.698853 
	C633.031494,654.821594 642.402100,677.982361 651.823792,701.122314 
	C652.061646,701.706543 652.515259,702.202881 653.123962,703.129333 
	C655.807678,700.151794 656.675415,696.571350 658.004150,693.330933 
	C665.902466,674.068726 673.527771,654.694092 681.505981,635.465515 
	C684.031311,629.379028 684.305054,624.247009 678.363281,620.115540 
	C677.974609,619.845337 677.701416,619.364563 677.468628,618.931152 
	C677.324646,618.663330 677.358948,618.299744 677.196655,617.162598 
	C685.667542,616.348755 694.020142,616.604980 703.097595,616.987000 
	C702.350708,618.575195 702.243042,619.377808 701.805908,619.648560 
	C693.726379,624.652588 690.541260,632.911316 687.275330,641.166870 
	C681.944946,654.640869 676.513245,668.074707 670.975220,681.879150 
z"/>
<path fill="#000000" opacity="1.000000" stroke="none" 
	d="
M493.961670,643.971863 
	C488.164368,633.901245 482.796143,623.943542 471.833984,618.529419 
	C472.141571,618.088928 472.449127,617.648499 472.756714,617.208008 
	C484.483429,617.208008 496.210144,617.208008 508.140747,617.208008 
	C507.959167,617.975952 507.985901,618.537231 507.723633,618.872375 
	C502.538116,625.499023 502.490051,625.518860 506.903870,632.764221 
	C513.313416,643.285645 519.774353,653.776001 526.254578,664.254028 
	C527.193665,665.772461 527.851807,667.594849 529.728394,668.311646 
	C531.120056,668.291138 531.862244,667.300903 532.489868,666.363037 
	C539.992126,655.153687 546.992554,643.642029 553.487793,631.814514 
	C556.023010,627.198120 555.795837,623.360291 551.537170,619.983887 
	C550.929016,619.501770 550.585205,618.686340 549.436279,617.056702 
	C558.986389,616.412781 567.722473,616.608154 576.420227,616.916443 
	C577.033997,619.653687 575.178528,620.289917 573.900146,621.112671 
	C568.455627,624.616577 564.321472,629.314270 560.982422,634.790466 
	C552.922913,648.008545 544.848328,661.217407 536.789917,674.436157 
	C536.270935,675.287354 535.588501,676.141479 535.402588,677.077759 
	C532.851074,689.923462 533.576721,702.825378 535.098389,715.695557 
	C535.378784,718.067383 537.714355,719.433411 539.676697,720.749756 
	C541.145569,721.735229 543.006897,722.323059 543.967712,725.084167 
	C531.693359,725.084167 519.832397,725.084167 508.007355,725.084167 
	C507.265137,722.955566 508.632324,722.060425 509.943878,721.411987 
	C515.179321,718.823608 516.491821,714.086121 516.616943,708.927429 
	C516.818848,700.606873 516.666748,692.278320 516.726807,683.953613 
	C516.751038,680.593506 515.157349,677.872009 513.484436,675.186646 
	C507.059357,664.873047 500.590271,654.586853 493.961670,643.971863 
z"/>
<path fill="#000000" opacity="1.000000" stroke="none" 
	d="
M416.701263,616.675232 
	C418.605988,616.836853 420.159576,616.331055 421.535553,617.408386 
	C421.951477,619.653564 419.931610,620.121399 418.685303,620.880859 
	C414.744415,623.282288 412.987305,626.629028 413.038910,631.248596 
	C413.340118,658.220215 411.681549,685.184814 412.842957,712.169006 
	C413.054871,717.091980 414.426483,719.107178 419.517090,718.721130 
	C427.306213,718.130371 435.130066,718.974976 442.957703,718.067566 
	C450.623596,717.178894 455.799500,713.176453 459.735229,706.917053 
	C461.735535,703.735718 463.215179,700.144897 466.832977,696.989136 
	C468.329956,703.134033 466.169373,708.346191 466.050934,713.602539 
	C466.036285,714.253540 465.724457,714.892395 465.611359,715.547363 
	C463.915253,725.371399 463.917633,725.350830 453.655121,725.390869 
	C432.004974,725.475403 410.354919,725.585571 388.704803,725.678589 
	C387.714386,725.682861 386.686432,725.736328 385.953247,724.757446 
	C385.539429,723.037231 386.957855,722.397156 388.032684,721.830322 
	C393.868164,718.753296 395.308990,713.487976 395.240234,707.522339 
	C394.981140,685.040955 394.671295,662.562256 395.570953,640.084351 
	C395.915314,631.480042 395.487274,630.813354 385.805908,617.226196 
	C396.215637,616.003845 406.256866,617.030579 416.701263,616.675232 
z"/>
<path fill="#000000" opacity="1.000000" stroke="none" 
	d="
M758.606201,725.838135 
	C747.867615,724.669983 737.422974,726.026733 726.748657,725.214050 
	C727.136597,724.086609 727.155762,723.399841 727.464966,723.224609 
	C735.144714,718.869690 735.138367,711.599670 735.146179,704.072449 
	C735.166504,684.455139 735.560791,664.838379 735.617615,645.220886 
	C735.645996,635.421753 738.031677,624.775330 726.393677,618.471069 
	C726.713867,618.117065 727.034058,617.763062 727.354248,617.409058 
	C738.566345,617.409058 749.778503,617.409058 761.091736,617.409058 
	C761.672668,619.452087 759.753113,620.183350 758.569580,621.074768 
	C754.485413,624.150574 753.036926,628.095459 753.060425,633.186279 
	C753.172791,657.479736 753.182373,681.776184 752.885315,706.067444 
	C752.797546,713.241394 753.807983,719.308167 761.028931,722.655151 
	C761.550598,722.896973 761.857056,723.603088 762.194824,724.010437 
	C761.763306,726.076538 760.257690,725.732361 758.606201,725.838135 
z"/>
<path fill="#000000" opacity="1.000000" stroke="none" 
	d="
M638.957092,802.498108 
	C637.048462,810.791260 630.701538,812.573425 624.069946,813.075928 
	C616.792358,813.627380 609.446167,813.252808 602.130493,813.335022 
	C599.399719,813.365723 598.126099,811.983398 598.118896,809.392883 
	C598.083008,796.423523 598.072449,783.454041 598.090759,770.484558 
	C598.094543,767.814758 599.567993,766.640564 602.216431,766.664185 
	C609.033447,766.725098 615.875427,766.354553 622.663025,766.813477 
	C634.832031,767.636414 639.601624,775.523987 634.633728,786.214722 
	C633.781616,788.048401 633.909180,789.207703 635.208191,790.627869 
	C638.163147,793.858398 639.425232,797.717468 638.957092,802.498108 
M608.377563,805.180786 
	C614.006470,806.063843 619.612122,805.986816 625.217651,804.911804 
	C628.160950,804.347473 630.293579,802.820068 630.468872,799.773010 
	C630.660339,796.446106 628.438660,794.477844 625.424561,793.869202 
	C622.680054,793.314941 619.813660,793.233093 616.997192,793.189270 
	C606.234192,793.021545 605.857178,793.525208 608.377563,805.180786 
M621.713562,774.404602 
	C618.080200,774.355408 614.446045,774.335449 610.813660,774.246704 
	C608.365417,774.186951 607.330261,775.255249 607.116272,777.756958 
	C606.544556,784.438904 607.469116,785.567688 614.349426,785.638733 
	C616.495544,785.660950 618.661194,785.726501 620.785339,785.485413 
	C623.934509,785.127930 627.296570,784.738403 627.816895,780.628357 
	C628.306641,776.759583 625.460632,775.572266 621.713562,774.404602 
z"/>
<path fill="#000000" opacity="1.000000" stroke="none" 
	d="
M301.778931,812.252502 
	C292.300323,814.141785 283.131012,813.023865 274.008179,813.254761 
	C271.717560,813.312805 270.739441,811.909790 270.736420,809.755188 
	C270.718079,796.617371 270.719452,783.479553 270.702057,770.341736 
	C270.698761,767.848450 271.951019,766.698242 274.395813,766.710083 
	C281.879333,766.746216 289.404266,766.287048 296.836609,766.919312 
	C307.529755,767.829163 312.171204,776.309814 307.523773,785.773865 
	C306.459167,787.941772 306.760834,789.315735 308.075592,791.149109 
	C314.593811,800.238342 312.380096,807.958130 301.778931,812.252502 
M301.426453,796.020935 
	C295.353729,791.322266 288.286377,793.020691 281.702087,793.622681 
	C277.598511,793.997803 279.670013,798.519470 279.312286,801.227600 
	C279.037964,803.304016 279.483368,805.473450 282.225952,805.513306 
	C287.363007,805.588074 292.561279,806.300476 297.612396,804.862488 
	C301.826538,803.662781 303.812622,801.113770 301.426453,796.020935 
M279.332611,782.040283 
	C279.449158,783.490784 280.011505,784.641541 281.579468,784.897339 
	C286.502472,785.700500 291.455780,786.188721 296.360321,784.927734 
	C299.070618,784.230835 300.540375,782.146851 300.613373,779.441345 
	C300.695465,776.399658 298.426880,774.933655 295.864288,774.592407 
	C292.604401,774.158264 289.263153,774.284424 285.956390,774.263062 
	C279.271545,774.219727 279.271362,774.245850 279.332611,782.040283 
z"/>
<path fill="#000000" opacity="1.000000" stroke="none" 
	d="
M748.011902,768.612305 
	C759.282959,774.586243 761.021667,786.848022 751.889832,795.102417 
	C749.475891,797.284485 749.426208,798.802124 751.032288,801.378235 
	C753.180359,804.823547 756.292725,807.784241 757.221497,812.342529 
	C752.770691,814.002258 749.125488,814.091064 746.557495,809.476807 
	C745.591003,807.740234 744.344238,806.156860 743.192810,804.526550 
	C740.067871,800.101929 735.966858,798.720337 730.706665,800.015137 
	C728.382446,800.587219 728.011902,802.215149 727.846558,804.099792 
	C727.687012,805.918945 727.473267,807.750732 727.537720,809.567932 
	C727.623291,811.982849 726.913391,813.371948 724.213745,813.346680 
	C721.618408,813.322449 719.630127,812.965942 719.593750,809.648193 
	C719.515503,802.500305 719.221313,795.355164 719.098816,788.207458 
	C719.004822,782.718567 719.105896,777.226074 718.990601,771.737854 
	C718.917480,768.258545 720.164612,766.395874 723.931824,766.650391 
	C731.839783,767.184448 739.926453,765.375549 748.011902,768.612305 
M740.655273,774.576599 
	C738.667236,774.476013 736.679565,774.298828 734.691101,774.288879 
	C728.077881,774.255615 727.622620,774.731140 727.651733,781.274048 
	C727.701660,792.500854 727.701660,792.500854 739.089905,791.711731 
	C744.802063,791.315918 748.277588,788.654175 748.816467,784.262512 
	C749.422852,779.320190 747.363098,776.668884 740.655273,774.576599 
z"/>
<path fill="#000000" opacity="1.000000" stroke="none" 
	d="
M354.969116,774.265381 
	C351.650909,774.269043 348.809814,774.437622 345.995697,774.234070 
	C341.858368,773.934631 339.910736,775.289185 339.939850,779.817871 
	C339.967957,784.199463 342.002594,785.196716 345.810364,785.047363 
	C349.962433,784.884583 354.128326,785.056030 358.287872,785.107544 
	C361.025940,785.141418 362.665192,786.270630 362.646576,789.292725 
	C362.627350,792.412292 360.844635,793.242859 358.129730,793.230835 
	C353.636963,793.210876 349.139038,793.417542 344.652191,793.265747 
	C340.172546,793.114319 340.066071,795.928894 340.060242,799.181152 
	C340.054352,802.455139 340.240295,805.199097 344.678162,805.081299 
	C350.331573,804.931274 355.992798,805.074646 361.650635,805.089111 
	C364.491943,805.096436 366.409088,805.883362 366.419586,809.334473 
	C366.430420,812.898132 364.446075,813.370300 361.594818,813.346069 
	C353.274750,813.275391 344.951752,813.212952 336.633972,813.366699 
	C333.078339,813.432373 331.699005,812.265198 331.542206,808.521179 
	C331.026764,796.212708 331.084473,783.924194 331.529572,771.617371 
	C331.659363,768.029114 332.745941,766.523499 336.463379,766.606018 
	C344.280853,766.779541 352.105011,766.637329 359.926300,766.661194 
	C362.407990,766.668762 365.102661,766.286194 365.227722,770.144165 
	C365.356354,774.112610 362.821747,774.302063 359.951385,774.253723 
	C358.454193,774.228516 356.956024,774.258667 354.969116,774.265381 
z"/>
<path fill="#000000" opacity="1.000000" stroke="none" 
	d="
M504.682922,770.201538 
	C504.958282,765.722778 507.997192,766.749329 510.301147,766.754578 
	C512.773621,766.760193 513.122375,768.668701 513.150574,770.616638 
	C513.201172,774.111023 513.261169,777.606750 513.213806,781.100525 
	C513.176636,783.843506 514.488159,785.027344 517.157410,785.020874 
	C522.316345,785.008362 527.476501,784.996338 532.634033,785.095337 
	C535.926819,785.158508 536.992493,783.482422 536.931946,780.436707 
	C536.865784,777.113403 537.002563,773.784119 537.117737,770.459717 
	C537.221985,767.450073 538.996338,766.612854 541.787537,766.695923 
	C544.752380,766.784180 545.355225,768.429993 545.351318,770.927124 
	C545.331665,783.575500 545.321350,796.224182 545.413696,808.872009 
	C545.436768,812.031372 544.245850,813.379333 540.996460,813.320984 
	C537.898682,813.265381 536.919128,811.771240 536.963623,808.961121 
	C537.024292,805.134521 536.880493,801.303711 536.979065,797.478760 
	C537.055969,794.499695 535.767700,793.270020 532.803223,793.329163 
	C527.646301,793.432251 522.485474,793.403748 517.327209,793.343567 
	C514.396057,793.309448 513.081787,794.636047 513.099731,797.562805 
	C513.121094,801.056519 512.993347,804.551392 512.909485,808.045349 
	C512.841614,810.871033 512.570801,813.303772 508.672333,813.377502 
	C504.588287,813.454773 504.652039,810.955933 504.658295,808.127869 
	C504.685974,795.645874 504.667389,783.163757 504.682922,770.201538 
z"/>
<path fill="#000000" opacity="1.000000" stroke="none" 
	d="
M421.732178,794.317383 
	C424.476593,800.528625 427.881287,806.071899 429.545074,812.578308 
	C424.512939,814.348511 420.908783,813.380371 419.214386,808.519653 
	C417.428772,803.397156 413.962311,801.637268 408.824371,802.285583 
	C407.350006,802.471558 405.820343,802.443298 404.337311,802.297302 
	C397.408600,801.614990 391.625549,802.367676 389.188263,810.548462 
	C387.920990,814.802063 383.833466,813.240417 380.719788,812.918823 
	C379.461121,810.682312 380.924957,809.160645 381.630981,807.609314 
	C387.211243,795.347961 392.915314,783.142944 398.481537,770.875366 
	C399.690704,768.210571 401.154846,766.663574 404.402496,766.576599 
	C407.867950,766.483826 409.491089,768.078796 410.786407,770.931152 
	C414.293427,778.653809 417.958191,786.304871 421.732178,794.317383 
M402.783508,780.719421 
	C400.706451,784.950317 398.375702,789.087585 397.515778,794.374146 
	C402.492310,795.219727 407.076447,795.120422 412.041260,794.403564 
	C410.610596,789.113464 408.356995,784.751526 405.996490,780.440979 
	C405.219574,779.022217 404.245850,778.372253 402.783508,780.719421 
z"/>
<path fill="#000000" opacity="1.000000" stroke="none" 
	d="
M693.968689,793.107422 
	C696.593445,799.740479 700.148682,805.587830 702.090210,812.095276 
	C696.099121,814.436890 694.321777,814.037659 692.142212,808.607422 
	C690.159546,803.667725 687.098206,801.537537 681.862976,802.296936 
	C680.398193,802.509399 678.862549,802.447327 677.381409,802.295898 
	C670.438782,801.585938 664.699646,802.421082 662.261475,810.557068 
	C660.985535,814.814880 656.992065,813.369446 653.865540,812.838562 
	C652.920776,810.621765 654.066589,809.017151 654.790283,807.412109 
	C660.321594,795.143799 665.969666,782.927795 671.441589,770.633301 
	C672.682617,767.844910 674.331665,766.572754 677.489136,766.607544 
	C680.581482,766.641663 682.309692,767.723877 683.562378,770.592407 
	C686.820129,778.051941 690.378723,785.380127 693.968689,793.107422 
M683.822266,790.588440 
	C681.951965,786.407043 680.425354,782.042908 677.303955,777.894348 
	C674.505066,783.386536 671.693298,788.317078 670.416992,794.090271 
	C674.642822,795.599731 678.460083,794.935120 682.215637,794.806702 
	C684.525879,794.727722 684.869385,793.217712 683.822266,790.588440 
z"/>
<path fill="#000000" opacity="1.000000" stroke="none" 
	d="
M481.445984,777.707092 
	C478.651337,778.559204 477.129089,776.554382 475.172974,775.800720 
	C468.651825,773.288269 462.382111,773.381348 456.863708,778.081421 
	C451.662964,782.510925 451.139374,788.504150 452.716431,794.580872 
	C454.410156,801.107361 459.473541,804.205872 465.780396,805.439636 
	C470.158875,806.296143 474.135864,804.806335 477.536224,802.338074 
	C481.077789,799.767456 483.305786,801.704224 485.043701,804.172668 
	C487.363251,807.467285 483.875488,808.494507 482.016205,809.650208 
	C465.964203,819.628235 446.578156,811.511902 443.288849,793.529602 
	C440.490417,778.230835 453.522339,764.625488 469.525330,766.166016 
	C473.346680,766.533936 477.080566,767.188171 480.558502,769.031860 
	C486.101624,771.970398 486.333344,773.239746 481.445984,777.707092 
z"/>
<path fill="#000000" opacity="1.000000" stroke="none" 
	d="
M412.181488,856.026611 
	C412.162903,860.685486 412.166077,864.851257 412.100403,869.015869 
	C412.077087,870.492615 412.247620,872.262756 410.599304,872.960266 
	C408.790283,873.725647 407.406006,872.550110 406.272278,871.252014 
	C401.919861,866.268555 397.595703,861.260315 392.159637,854.991211 
	C392.159637,860.516296 392.188660,864.584534 392.147583,868.651978 
	C392.126556,870.733643 391.893738,872.882874 389.161438,872.990173 
	C386.378601,873.099365 385.987793,870.942444 385.967926,868.869324 
	C385.897705,861.539917 385.904236,854.209290 385.955017,846.879639 
	C385.965210,845.408691 385.982941,843.678223 387.623169,842.991760 
	C389.410095,842.243896 390.915466,843.219910 392.040283,844.526917 
	C394.646179,847.554810 397.143005,850.676514 399.687592,853.757263 
	C401.357330,855.778870 403.033112,857.795471 405.845276,859.569031 
	C405.845276,855.176941 405.798950,850.784058 405.869873,846.393127 
	C405.895477,844.808777 405.547546,842.629639 407.861237,842.467468 
	C410.098907,842.310608 411.725006,843.748413 411.912140,846.047485 
	C412.168457,849.195618 412.103424,852.369995 412.181488,856.026611 
z"/>
<path fill="#000000" opacity="1.000000" stroke="none" 
	d="
M653.492737,851.228638 
	C653.750488,858.719238 654.663391,865.811523 652.859802,873.839233 
	C644.340942,869.956726 641.159851,861.643433 634.113464,855.260803 
	C634.113464,860.051575 634.175354,863.749756 634.091553,867.444641 
	C634.036377,869.878052 634.464478,872.957703 630.730835,872.918701 
	C627.272644,872.882446 627.728516,869.978333 627.704773,867.715881 
	C627.633240,860.894043 627.601562,854.070862 627.657898,847.249084 
	C627.670715,845.693848 627.057190,843.661499 629.088623,842.872986 
	C631.148621,842.073364 632.582520,843.529480 633.802429,844.899658 
	C636.564453,848.001892 639.211853,851.206055 641.939270,854.339661 
	C643.318665,855.924316 644.213623,858.024536 646.654541,858.883667 
	C648.384033,856.263916 647.397705,853.366821 647.701843,850.673218 
	C647.906555,848.860107 647.829224,846.998718 648.197571,845.225342 
	C648.540039,843.576843 649.828552,842.773682 651.564392,842.939514 
	C653.315918,843.106873 653.639648,844.501587 653.705139,845.830688 
	C653.786438,847.481567 653.586304,849.146301 653.492737,851.228638 
z"/>
<path fill="#000000" opacity="1.000000" stroke="none" 
	d="
M689.417175,869.583496 
	C682.979736,873.757935 676.101379,873.213562 669.302551,873.028748 
	C666.919983,872.964050 666.295044,871.125488 666.272888,869.191772 
	C666.185486,861.557373 666.183716,853.921692 666.195496,846.286621 
	C666.198853,844.127197 667.289917,842.800537 669.545471,842.822998 
	C674.015991,842.867493 678.499695,842.246948 682.948547,843.365356 
	C688.649231,844.798645 693.107849,847.616272 694.621399,853.655457 
	C696.167969,859.826599 694.691223,865.165588 689.417175,869.583496 
M688.654053,855.181763 
	C686.156677,850.326538 680.039978,847.351807 675.040405,848.411560 
	C672.998962,848.844238 672.321594,850.065674 672.324585,851.936646 
	C672.330933,855.919617 672.355591,859.902649 672.345215,863.885559 
	C672.338989,866.284546 673.386292,867.429932 675.889771,867.677307 
	C684.113037,868.489685 688.796997,864.307983 688.654053,855.181763 
z"/>
<path fill="#000000" opacity="1.000000" stroke="none" 
	d="
M439.759949,842.647705 
	C449.474335,844.573853 454.428894,849.995300 454.261749,858.055420 
	C454.106140,865.557068 448.403046,871.944397 440.777435,873.157471 
	C432.645538,874.451111 425.452606,870.441772 422.711456,863.087524 
	C418.765839,852.501709 426.668945,842.766113 439.759949,842.647705 
M434.617249,848.951782 
	C430.409851,850.355103 428.612213,853.618530 428.502686,857.710266 
	C428.405182,861.353088 429.738373,864.572571 433.223297,866.411377 
	C437.369965,868.599365 441.379211,868.132935 444.724182,864.985962 
	C448.103058,861.807190 448.733185,857.711670 446.646362,853.585083 
	C444.312653,848.970276 440.281433,847.611633 434.617249,848.951782 
z"/>
<path fill="#000000" opacity="1.000000" stroke="none" 
	d="
M597.914917,848.995300 
	C598.937195,847.048584 599.485962,845.114258 600.741699,843.928772 
	C602.679993,842.098877 605.599854,842.032776 606.805359,844.401367 
	C611.371460,853.373352 615.831055,862.427490 619.353638,872.009949 
	C615.876953,873.969604 613.935547,872.808594 612.140015,870.375977 
	C607.686523,864.342590 598.616821,864.501953 594.380432,870.686279 
	C593.121338,872.524231 591.714355,873.935913 589.496094,872.738098 
	C587.024231,871.403320 588.761169,869.517151 589.417297,868.005432 
	C592.130249,861.755432 594.966858,855.559204 597.914917,848.995300 
M600.097656,859.608337 
	C602.297852,861.988586 604.628296,860.897339 607.313232,860.091736 
	C606.288147,857.297180 605.969055,854.537842 603.372437,852.859131 
	C601.297119,854.556580 600.790710,856.799133 600.097656,859.608337 
z"/>
<path fill="#000000" opacity="1.000000" stroke="none" 
	d="
M470.491577,842.772095 
	C474.087250,842.595703 477.251953,842.424377 480.326508,843.487427 
	C482.142731,844.115295 483.926208,844.765015 483.347809,847.236816 
	C482.753082,849.778320 480.915649,849.548706 479.008087,849.028748 
	C478.686951,848.941223 478.381470,848.778687 478.056519,848.725525 
	C474.783752,848.189697 470.377014,846.912109 469.387360,850.896545 
	C468.422394,854.781738 473.260773,854.405884 475.791138,855.509277 
	C477.154755,856.103882 478.676208,856.327637 480.065887,856.873108 
	C483.066254,858.050781 485.123993,859.998291 485.269684,863.491455 
	C485.425873,867.236877 483.810913,869.932739 480.534302,871.594849 
	C475.230560,874.285461 469.866516,873.650879 464.577026,871.551025 
	C462.791382,870.842102 461.297424,869.677124 462.154358,867.351746 
	C463.066620,864.876404 464.869507,865.376953 466.678070,866.107727 
	C469.168060,867.113708 471.679932,867.985107 474.430511,867.608704 
	C476.138702,867.374939 477.926361,866.941040 478.203064,864.975098 
	C478.464783,863.115845 476.686279,862.523987 475.356873,861.969849 
	C473.520477,861.204346 471.554962,860.755676 469.678772,860.077209 
	C465.370544,858.519287 461.631775,856.254211 461.885773,850.975403 
	C462.125946,845.983826 465.728088,843.940552 470.491577,842.772095 
z"/>
<path fill="#000000" opacity="1.000000" stroke="none" 
	d="
M542.581909,873.180176 
	C538.251831,873.574341 534.517395,873.003967 531.022034,871.165588 
	C529.401184,870.312988 528.291321,869.108887 528.997253,867.157837 
	C529.800598,864.937683 531.504700,865.448303 533.148010,866.021729 
	C535.821228,866.954346 538.490356,868.024170 541.395447,867.559204 
	C543.206543,867.269348 545.030945,866.809204 545.511108,864.599609 
	C544.857422,862.445251 542.877869,862.187012 541.222229,861.542969 
	C539.986938,861.062561 538.654663,860.835510 537.408325,860.378784 
	C531.093445,858.064636 528.303284,854.622437 529.064148,850.159302 
	C529.891907,845.303650 534.245300,842.498413 540.984680,842.688721 
	C542.953735,842.744263 544.941833,843.147034 546.861755,843.627869 
	C548.675659,844.082214 550.482178,844.777893 549.774963,847.342346 
	C549.078369,849.867981 547.276550,849.687012 545.417236,849.054016 
	C543.152893,848.283142 540.867249,847.939453 538.548523,848.536743 
	C537.234680,848.875244 536.027100,849.583069 535.943604,851.188049 
	C535.871887,852.568481 536.831909,853.328613 537.939758,853.767212 
	C540.257446,854.684937 542.597778,855.563293 544.976868,856.303528 
	C548.929871,857.533447 552.166138,859.596619 552.104065,864.144958 
	C552.042114,868.679993 549.281616,871.433899 544.933472,872.592224 
	C544.290466,872.763611 543.651062,872.948425 542.581909,873.180176 
z"/>
<path fill="#000000" opacity="1.000000" stroke="none" 
	d="
M349.280090,866.833618 
	C349.265991,868.137695 349.265015,868.967285 349.233093,869.795593 
	C349.171051,871.404236 348.754181,872.826294 346.864990,873.039490 
	C344.753357,873.277832 343.948883,871.866089 343.525543,870.115723 
	C342.456848,865.696777 342.713013,861.188354 342.993561,856.742126 
	C343.312836,851.682617 342.989929,847.631104 336.275330,848.224548 
	C334.599762,848.372620 333.346924,847.298523 333.368378,845.516418 
	C333.389984,843.722168 334.716125,842.847595 336.361267,842.826172 
	C342.992371,842.739807 349.624878,842.734436 356.256683,842.753784 
	C357.431793,842.757202 358.703308,843.027100 358.957581,844.441895 
	C359.241913,846.024109 358.174744,847.261963 356.862946,847.359680 
	C347.886719,848.028625 349.143646,854.501404 349.267975,860.388062 
	C349.309998,862.377441 349.277618,864.368347 349.280090,866.833618 
z"/>
<path fill="#000000" opacity="1.000000" stroke="none" 
	d="
M561.790771,869.704956 
	C561.765930,862.600891 561.695312,855.967163 561.812317,849.336792 
	C561.860535,846.606812 561.457520,842.833984 565.378174,842.830017 
	C569.532410,842.825867 567.912170,846.723022 568.059265,849.022827 
	C568.323364,853.151550 568.389343,857.327515 568.079651,861.449280 
	C567.727051,866.143188 569.951965,867.731873 574.213196,867.624268 
	C576.200317,867.574036 578.191406,867.663818 580.180298,867.709351 
	C581.526428,867.740234 582.395325,868.321899 582.399475,869.789612 
	C582.402893,870.985901 582.310181,872.504578 580.984375,872.647156 
	C574.934204,873.297607 568.842102,874.022583 562.850952,872.290161 
	C562.346008,872.144226 562.156616,870.906921 561.790771,869.704956 
z"/>
<path fill="#000000" opacity="1.000000" stroke="none" 
	d="
M218.937088,789.932373 
	C220.035019,784.099182 223.006165,781.366394 227.430862,781.705994 
	C231.630234,782.028320 234.859756,785.342651 235.073761,789.549561 
	C235.290390,793.807983 232.428406,797.299561 228.161041,797.982910 
	C223.629196,798.708618 220.450607,796.067810 218.937088,789.932373 
z"/>
<path fill="#000000" opacity="1.000000" stroke="none" 
	d="
M809.271667,794.136963 
	C806.190796,798.034790 802.651245,799.254944 798.520020,796.881897 
	C795.110229,794.923218 793.862549,791.723145 794.723694,787.898438 
	C795.609314,783.965637 798.332520,781.983398 802.254822,781.821167 
	C808.318420,781.570251 811.584656,787.080627 809.271667,794.136963 
z"/>
<path fill="#000000" opacity="1.000000" stroke="none" 
	d="
M518.065186,862.922241 
	C518.030457,865.567200 518.080139,867.731140 517.921997,869.879639 
	C517.789856,871.675232 517.064758,873.156982 514.885864,873.039917 
	C513.153137,872.946899 511.975159,871.942078 511.963745,870.239197 
	C511.909180,862.110474 511.882324,853.978638 512.074097,845.853333 
	C512.121826,843.831055 513.788574,842.534607 515.866760,842.676392 
	C518.208801,842.836243 518.004211,844.911804 518.027466,846.496826 
	C518.105591,851.808411 518.058716,857.121826 518.065186,862.922241 
z"/>
<path fill="#000000" opacity="1.000000" stroke="none" 
	d="
M367.050110,859.138977 
	C367.275116,854.689453 367.506439,850.708191 367.701355,846.725159 
	C367.814484,844.414307 368.834015,842.729675 371.261353,842.825684 
	C373.687805,842.921753 373.281006,845.106445 373.294067,846.663635 
	C373.356750,854.145569 373.356323,861.628540 373.300415,869.110596 
	C373.288574,870.695068 373.562195,872.773560 371.205231,872.969116 
	C368.941772,873.156799 368.094940,871.412720 367.624603,869.533386 
	C366.806671,866.265198 366.962769,862.931763 367.050110,859.138977 
z"/>
</svg>